<?xml version="1.0" standalone="no"?>
<!DOCTYPE svg PUBLIC "-//W3C//DTD SVG 20010904//EN"
 "http://www.w3.org/TR/2001/REC-SVG-20010904/DTD/svg10.dtd">
<svg version="1.0" xmlns="http://www.w3.org/2000/svg"
 width="640.000000pt" height="426.000000pt" viewBox="0 0 640.000000 426.000000"
 preserveAspectRatio="xMidYMid meet">
<metadata>
Created by potrace 1.16, written by Peter Selinger 2001-2019
</metadata>
<g transform="translate(0.000000,426.000000) scale(0.033333,-0.048081)"
fill="#000000" stroke="none">
<path d="M0 4430 l0 -4430 9600 0 9600 0 0 4430 0 4430 -9600 0 -9600 0 0
-4430z m12371 1200 c51 -28 49 18 49 -1210 0 -821 -3 -1147 -11 -1163 -6 -12
-21 -30 -33 -39 -20 -17 -181 -18 -2772 -18 l-2751 0 -26 21 c-15 11 -31 37
-37 57 -8 26 -10 385 -8 1170 l3 1134 33 29 32 29 2751 0 c1867 0 2756 -3
2770 -10z"/>
<path d="M7312 4374 c-21 -14 -22 -22 -22 -154 l0 -139 30 -16 c25 -13 150
-15 1007 -15 768 0 983 3 1003 13 25 12 25 15 28 149 2 119 0 140 -15 158 -17
20 -23 20 -1013 20 -885 0 -998 -2 -1018 -16z m2026 -16 c8 -8 12 -53 12 -138
0 -85 -4 -130 -12 -138 -9 -9 -248 -12 -1014 -12 -904 0 -1002 2 -1008 16 -12
30 -7 259 6 272 17 17 1999 17 2016 0z"/>
<path d="M9852 4374 c-21 -14 -22 -22 -22 -154 l0 -139 30 -16 c25 -13 150
-15 1012 -15 772 0 988 3 1008 13 25 12 25 15 28 149 2 119 0 140 -15 158 -17
20 -23 20 -1018 20 -889 0 -1003 -2 -1023 -16z m2036 -16 c8 -8 12 -53 12
-138 0 -85 -4 -130 -12 -138 -9 -9 -249 -12 -1019 -12 -909 0 -1007 2 -1013
16 -12 30 -7 259 6 272 17 17 2009 17 2026 0z"/>
</g>
</svg>
